<?xml version="1.0" standalone="no"?>
<!DOCTYPE svg PUBLIC "-//W3C//DTD SVG 20010904//EN"
 "http://www.w3.org/TR/2001/REC-SVG-20010904/DTD/svg10.dtd">
<svg version="1.0" xmlns="http://www.w3.org/2000/svg"
 width="280.000000pt" height="180.000000pt" viewBox="0 0 280.000000 180.000000"
 preserveAspectRatio="xMidYMid meet">

<g transform="translate(0.000000,180.000000) scale(0.100000,-0.100000)"
fill="#000000" stroke="none">
<path d="M981 1674 c-71 -19 -143 -59 -203 -113 l-49 -44 -42 29 c-23 16 -57
53 -76 81 -19 29 -37 51 -39 48 -10 -9 55 -109 95 -146 24 -21 43 -41 43 -44
0 -2 -14 -24 -30 -47 -47 -68 -73 -151 -78 -257 -6 -118 8 -185 59 -279 l39
-74 -45 -51 c-92 -104 -135 -226 -135 -381 0 -122 19 -205 72 -314 l40 -82 50
0 c44 0 49 2 38 15 -10 12 -10 15 2 15 8 0 19 -5 26 -12 16 -16 122 -22 122
-7 0 9 3 9 14 0 11 -9 15 -9 19 1 4 9 8 10 14 2 5 -7 71 -12 181 -13 149 -2
173 0 178 13 3 9 10 16 15 16 4 0 6 -7 3 -15 -5 -13 15 -15 145 -14 122 0 149
2 145 13 -3 8 -1 17 5 21 7 3 11 -3 11 -16 0 -19 4 -20 33 -15 38 9 59 8 113
0 30 -4 43 -2 53 10 17 20 50 21 57 1 4 -8 15 -15 25 -15 16 0 18 5 13 24 -4
19 1 32 20 51 29 29 44 29 60 -1 6 -10 15 -22 21 -26 5 -4 2 -10 -7 -13 -9 -4
-19 -13 -22 -20 -4 -10 17 -13 99 -14 l103 -1 31 50 c58 94 84 191 85 315 1
162 -36 278 -129 404 l-44 59 40 79 c25 50 43 103 50 148 19 128 -12 279 -76
376 l-35 52 43 46 c46 50 103 138 94 147 -3 3 -13 -8 -21 -25 -23 -44 -74
-100 -108 -117 -29 -15 -30 -15 -77 30 -160 149 -390 166 -560 41 l-61 -45
-61 45 c-105 78 -234 102 -358 69z m45 -34 c0 -11 -4 -20 -8 -20 -4 0 -8 9 -8
20 0 11 4 20 8 20 4 0 8 -9 8 -20z m121 0 c-1 -11 -5 -20 -9 -20 -10 0 -10 4
-2 24 8 22 13 20 11 -4z m510 -12 c-3 -7 -5 -2 -5 12 0 14 2 19 5 13 2 -7 2
-19 0 -25z m133 25 c0 -5 -5 -15 -10 -23 -7 -12 -9 -10 -7 8 1 19 17 33 17 15z
m-803 -25 c-3 -8 -6 -5 -6 6 -1 11 2 17 5 13 3 -3 4 -12 1 -19z m220 2 c-1
-11 -5 -20 -9 -20 -10 0 -10 4 -2 24 8 22 13 20 11 -4z m403 -12 c0 -19 -16
-5 -17 14 -2 18 0 20 7 8 5 -8 10 -18 10 -22z m210 17 c0 -8 -4 -15 -10 -15
-5 0 -7 7 -4 15 4 8 8 15 10 15 2 0 4 -7 4 -15z m-863 -27 c-3 -7 -5 -2 -5 12
0 14 2 19 5 13 2 -7 2 -19 0 -25z m773 28 c0 -3 -4 -8 -10 -11 -5 -3 -10 -1
-10 4 0 6 5 11 10 11 6 0 10 -2 10 -4z m120 -11 c0 -8 -4 -15 -10 -15 -5 0 -7
7 -4 15 4 8 8 15 10 15 2 0 4 -7 4 -15z m-920 -23 c0 -15 -2 -15 -10 -2 -13
20 -13 33 0 25 6 -3 10 -14 10 -23z m956 12 c-3 -9 -6 -18 -6 -20 0 -3 -4 -3
-10 1 -11 7 -2 35 12 35 6 0 7 -7 4 -16z m-986 -32 c0 -15 -2 -15 -10 -2 -13
20 -13 33 0 25 6 -3 10 -14 10 -23z m608 -7 c-3 -3 -9 2 -12 12 -6 14 -5 15 5
6 7 -7 10 -15 7 -18z m-643 4 c11 -17 -1 -21 -15 -4 -8 9 -8 15 -2 15 6 0 14
-5 17 -11z m456 -16 c-12 -20 -14 -14 -5 12 4 9 9 14 11 11 3 -2 0 -13 -6 -23z
m167 -8 c-3 -3 -9 2 -12 12 -6 14 -5 15 5 6 7 -7 10 -15 7 -18z m-638 -6 c0
-14 -17 -10 -23 5 -4 10 -1 13 9 9 7 -3 14 -9 14 -14z m504 6 c-4 -8 -11 -15
-16 -15 -6 0 -5 6 2 15 7 8 14 15 16 15 2 0 1 -7 -2 -15z m620 0 c-7 -16 -24
-21 -24 -6 0 8 7 13 27 20 1 1 0 -6 -3 -14z m-514 -5 c0 -5 -2 -10 -4 -10 -3
0 -8 5 -11 10 -3 6 -1 10 4 10 6 0 11 -4 11 -10z m-87 -15 c-3 -9 -8 -14 -10
-11 -3 3 -2 9 2 15 9 16 15 13 8 -4z m-563 -5 c0 -5 -4 -10 -9 -10 -6 0 -13 5
-16 10 -3 6 1 10 9 10 9 0 16 -4 16 -10z m1200 0 c0 -5 -4 -10 -9 -10 -6 0
-13 5 -16 10 -3 6 1 10 9 10 9 0 16 -4 16 -10z m-604 -20 c0 -11 -4 -20 -8
-20 -4 0 -8 9 -8 20 0 11 4 20 8 20 4 0 8 -9 8 -20z m-76 -4 c0 -3 -4 -8 -10
-11 -5 -3 -10 -1 -10 4 0 6 5 11 10 11 6 0 10 -2 10 -4z m160 -6 c0 -5 -2 -10
-4 -10 -3 0 -8 5 -11 10 -3 6 -1 10 4 10 6 0 11 -4 11 -10z m-430 -20 c0 -5
-4 -10 -10 -10 -5 0 -10 5 -10 10 0 6 5 10 10 10 6 0 10 -4 10 -10z m40 -6 c0
-8 -4 -12 -10 -9 -5 3 -10 10 -10 16 0 5 5 9 10 9 6 0 10 -7 10 -16z m40 -5
c0 -5 -4 -9 -10 -9 -5 0 -10 7 -10 16 0 8 5 12 10 9 6 -3 10 -10 10 -16z m567
-1 c-3 -8 -6 -5 -6 6 -1 11 2 17 5 13 3 -3 4 -12 1 -19z m48 12 c-3 -5 -11
-10 -16 -10 -6 0 -7 5 -4 10 3 6 11 10 16 10 6 0 7 -4 4 -10z m-738 -6 c-3 -3
-12 -4 -19 -1 -8 3 -5 6 6 6 11 1 17 -2 13 -5z m343 2 c0 -3 -4 -8 -10 -11 -5
-3 -10 -1 -10 4 0 6 5 11 10 11 6 0 10 -2 10 -4z m100 -6 c0 -5 -2 -10 -4 -10
-3 0 -8 5 -11 10 -3 6 -1 10 4 10 6 0 11 -4 11 -10z m215 0 c3 -5 1 -10 -4
-10 -6 0 -11 5 -11 10 0 6 2 10 4 10 3 0 8 -4 11 -10z m-910 -10 c3 -5 2 -10
-4 -10 -5 0 -13 5 -16 10 -3 6 -2 10 4 10 5 0 13 -4 16 -10z m175 0 c0 -5 -5
-10 -11 -10 -5 0 -7 5 -4 10 3 6 8 10 11 10 2 0 4 -4 4 -10z m234 -5 c-4 -8
-10 -12 -15 -9 -11 6 -2 24 11 24 5 0 7 -7 4 -15z m463 -7 c-3 -8 -6 -5 -6 6
-1 11 2 17 5 13 3 -3 4 -12 1 -19z m233 12 c0 -5 -2 -10 -4 -10 -3 0 -8 5 -11
10 -3 6 -1 10 4 10 6 0 11 -4 11 -10z m180 0 c0 -5 -5 -10 -11 -10 -5 0 -7 5
-4 10 3 6 8 10 11 10 2 0 4 -4 4 -10z m-130 -10 c8 -5 11 -10 5 -10 -5 0 -17
5 -25 10 -8 5 -10 10 -5 10 6 0 17 -5 25 -10z m-1181 -9 c9 -6 10 -11 2 -15
-6 -4 -11 -2 -11 4 0 6 -4 8 -10 5 -5 -3 -10 -1 -10 4 0 13 10 14 29 2z m471
1 c0 -13 -12 -22 -22 -16 -10 6 -1 24 13 24 5 0 9 -4 9 -8z m174 -7 c-4 -8
-11 -12 -16 -9 -6 4 -5 10 3 15 19 12 19 11 13 -6z m223 0 c0 -8 -4 -12 -9 -9
-4 3 -8 9 -8 15 0 5 4 9 8 9 5 0 9 -7 9 -15z m483 5 c0 -5 -2 -10 -4 -10 -3 0
-8 5 -11 10 -3 6 -1 10 4 10 6 0 11 -4 11 -10z m-1230 -10 c0 -5 -5 -10 -11
-10 -5 0 -7 5 -4 10 3 6 8 10 11 10 2 0 4 -4 4 -10z m1095 0 c3 -5 1 -10 -4
-10 -6 0 -11 5 -11 10 0 6 2 10 4 10 3 0 8 -4 11 -10z m-818 -32 c111 -55 140
-165 78 -288 -49 -96 -164 -155 -255 -131 -63 17 -104 52 -135 114 -102 209
103 409 312 305z m86 17 c-3 -9 -8 -14 -10 -11 -3 3 -2 9 2 15 9 16 15 13 8
-4z m365 -10 c-3 -3 -9 2 -12 12 -6 14 -5 15 5 6 7 -7 10 -15 7 -18z m292 -5
c42 -21 96 -79 112 -119 5 -14 10 -49 9 -78 -1 -134 -106 -245 -218 -229 -162
22 -276 194 -219 330 43 103 205 153 316 96z m-1080 10 c0 -5 7 -6 17 -3 11 4
14 3 9 -5 -10 -17 -33 -15 -40 3 -3 8 -1 15 4 15 6 0 10 -4 10 -10z m610 0 c0
-5 -7 -10 -16 -10 -8 0 -12 5 -9 10 3 6 10 10 16 10 5 0 9 -4 9 -10z m592 -12
c-9 -9 -15 -9 -24 1 -11 11 -10 13 5 8 10 -4 17 -2 17 5 0 6 3 8 7 5 4 -4 1
-13 -5 -19z m-1272 2 c0 -13 -11 -13 -30 0 -12 8 -11 10 8 10 12 0 22 -4 22
-10z m512 -12 c-7 -7 -12 -8 -12 -2 0 14 12 26 19 19 2 -3 -1 -11 -7 -17z
m858 12 c-18 -12 -30 -13 -30 -2 0 4 10 9 22 9 18 2 20 0 8 -7z m-1308 -42
c-11 -11 -32 -3 -32 12 0 4 9 6 21 3 13 -4 17 -9 11 -15z m478 12 c0 -5 -4
-10 -10 -10 -5 0 -10 5 -10 10 0 6 5 10 10 10 6 0 10 -4 10 -10z m280 0 c0 -5
-5 -10 -11 -10 -5 0 -7 5 -4 10 3 6 8 10 11 10 2 0 4 -4 4 -10z m490 1 c0 -13
-28 -22 -35 -11 -3 4 1 11 7 13 20 8 28 8 28 -2z m70 -11 c-20 -13 -30 -12
-30 1 0 5 4 8 9 4 5 -3 13 0 16 6 4 5 10 8 13 4 4 -3 0 -10 -8 -15z m-1390 1
c0 -5 -9 -7 -20 -4 -11 3 -20 7 -20 9 0 2 9 4 20 4 11 0 20 -4 20 -9z m570
-21 c0 -5 -4 -10 -10 -10 -5 0 -10 5 -10 10 0 6 5 10 10 10 6 0 10 -4 10 -10z
m-585 -10 c-3 -5 -12 -7 -20 -3 -21 7 -19 13 6 13 11 0 18 -4 14 -10z m1425 6
c0 -9 -30 -14 -35 -6 -4 6 3 10 14 10 12 0 21 -2 21 -4z m-1360 -16 c0 -5 -4
-10 -9 -10 -6 0 -13 5 -16 10 -3 6 1 10 9 10 9 0 16 -4 16 -10z m1290 6 c0 -9
-30 -14 -35 -6 -4 6 3 10 14 10 12 0 21 -2 21 -4z m-760 -16 c0 -5 -4 -10 -10
-10 -5 0 -10 5 -10 10 0 6 5 10 10 10 6 0 10 -4 10 -10z m-607 -7 c-7 -2 -19
-2 -25 0 -7 3 -2 5 12 5 14 0 19 -2 13 -5z m1432 -3 c-28 -12 -37 -12 -30 0 3
6 16 10 28 9 21 0 21 -1 2 -9z m-815 -20 c0 -5 -5 -10 -11 -10 -5 0 -7 5 -4
10 3 6 8 10 11 10 2 0 4 -4 4 -10z m200 0 c0 -5 -4 -10 -10 -10 -5 0 -10 5
-10 10 0 6 5 10 10 10 6 0 10 -4 10 -10z m550 6 c0 -3 -4 -8 -10 -11 -5 -3
-10 -1 -10 4 0 6 5 11 10 11 6 0 10 -2 10 -4z m-1310 -42 c0 -8 -5 -12 -10 -9
-6 4 -8 11 -5 16 9 14 15 11 15 -7z m-45 -4 c3 -5 1 -10 -4 -10 -6 0 -11 5
-11 10 0 6 2 10 4 10 3 0 8 -4 11 -10z m610 0 c-3 -5 -11 -10 -16 -10 -6 0 -7
5 -4 10 3 6 11 10 16 10 6 0 7 -4 4 -10z m190 0 c3 -5 1 -10 -4 -10 -6 0 -11
5 -11 10 0 6 2 10 4 10 3 0 8 -4 11 -10z m-195 -40 c0 -5 -4 -10 -10 -10 -5 0
-10 5 -10 10 0 6 5 10 10 10 6 0 10 -4 10 -10z m200 0 c0 -5 -4 -10 -10 -10
-5 0 -10 5 -10 10 0 6 5 10 10 10 6 0 10 -4 10 -10z m-794 -47 c-10 -10 -19 5
-10 18 6 11 8 11 12 0 2 -7 1 -15 -2 -18z m584 7 c0 -5 -2 -10 -4 -10 -3 0 -8
5 -11 10 -3 6 -1 10 4 10 6 0 11 -4 11 -10z m800 0 c0 -5 -4 -10 -10 -10 -5 0
-10 5 -10 10 0 6 5 10 10 10 6 0 10 -4 10 -10z m-1370 -41 c0 -6 -4 -7 -10 -4
-5 3 -10 11 -10 16 0 6 5 7 10 4 6 -3 10 -11 10 -16z m785 2 c-3 -6 -11 -11
-16 -11 -5 0 -4 6 3 14 14 16 24 13 13 -3z m-215 -1 c8 -5 11 -10 5 -10 -5 0
-17 5 -25 10 -8 5 -10 10 -5 10 6 0 17 -5 25 -10z m805 0 c18 -8 17 -9 -7 -9
-16 -1 -28 4 -28 9 0 12 8 12 35 0z m-1405 -4 c0 -3 -4 -8 -10 -11 -5 -3 -10
-1 -10 4 0 6 5 11 10 11 6 0 10 -2 10 -4z m50 -25 c0 -5 -9 -11 -21 -14 -16
-4 -18 -3 -8 9 13 16 29 19 29 5z m540 -14 c11 -5 9 -6 -4 -4 -11 1 -21 9 -23
17 -3 10 -2 11 4 4 4 -6 15 -14 23 -17z m780 13 c0 -5 -4 -10 -10 -10 -5 0
-10 5 -10 10 0 6 5 10 10 10 6 0 10 -4 10 -10z m-1305 -40 c3 -5 1 -10 -4 -10
-6 0 -11 5 -11 10 0 6 2 10 4 10 3 0 8 -4 11 -10z m490 0 c-3 -5 -1 -10 4 -10
6 0 11 -5 11 -11 0 -8 -5 -8 -15 1 -17 14 -20 30 -4 30 5 0 7 -4 4 -10z m305
0 c0 -5 -2 -10 -4 -10 -3 0 -8 5 -11 10 -3 6 -1 10 4 10 6 0 11 -4 11 -10z
m490 0 c0 -5 -4 -10 -10 -10 -5 0 -10 5 -10 10 0 6 5 10 10 10 6 0 10 -4 10
-10z m-510 -20 c0 -5 -5 -10 -11 -10 -5 0 -7 5 -4 10 3 6 8 10 11 10 2 0 4 -4
4 -10z m-750 -15 c-1 -6 -10 -13 -20 -17 -18 -6 -18 -5 -7 12 12 20 30 23 27
5z m450 -17 c0 -5 -7 -3 -15 6 -8 8 -15 18 -15 22 0 3 7 1 15 -6 8 -7 15 -17
15 -22z m345 22 c3 -5 1 -10 -4 -10 -6 0 -11 5 -11 10 0 6 2 10 4 10 3 0 8 -4
11 -10z m460 -28 c-2 -2 -13 2 -24 10 -12 8 -18 17 -15 21 3 3 14 -2 25 -11
10 -9 17 -18 14 -20z m-1221 -1 c3 -4 -4 -17 -16 -27 -20 -18 -21 -18 -15 -1
4 10 7 23 7 28 0 11 17 12 24 0z m381 -39 c-7 -8 -25 10 -20 19 4 5 1 9 -5 9
-6 0 -8 5 -4 11 4 8 11 3 20 -12 7 -13 11 -26 9 -27z m415 13 c-7 -8 -18 -15
-24 -15 -6 0 -4 6 5 13 9 7 14 19 11 27 -4 12 -2 12 8 3 11 -10 11 -15 0 -28z
m375 25 c3 -5 -1 -10 -10 -10 -9 0 -13 5 -10 10 3 6 8 10 10 10 2 0 7 -4 10
-10z m-25 -45 c0 -5 -5 -3 -10 5 -5 8 -10 20 -10 25 0 6 5 3 10 -5 5 -8 10
-19 10 -25z m-1263 19 c-3 -3 -12 -4 -19 -1 -8 3 -5 6 6 6 11 1 17 -2 13 -5z
m453 2 c0 -3 -4 -8 -10 -11 -5 -3 -10 -1 -10 4 0 6 5 11 10 11 6 0 10 -2 10
-4z m505 -6 c3 -5 2 -10 -4 -10 -5 0 -13 5 -16 10 -3 6 -2 10 4 10 5 0 13 -4
16 -10z m345 0 c0 -5 -2 -10 -4 -10 -3 0 -8 5 -11 10 -3 6 -1 10 4 10 6 0 11
-4 11 -10z m-1283 -32 c-3 -8 -6 -5 -6 6 -1 11 2 17 5 13 3 -3 4 -12 1 -19z
m173 12 c0 -5 -2 -10 -4 -10 -3 0 -8 5 -11 10 -3 6 -1 10 4 10 6 0 11 -4 11
-10z m220 6 c0 -3 -4 -8 -10 -11 -5 -3 -10 -1 -10 4 0 6 5 11 10 11 6 0 10 -2
10 -4z m580 -6 c0 -5 -4 -10 -10 -10 -5 0 -10 5 -10 10 0 6 5 10 10 10 6 0 10
-4 10 -10z m-620 -4 c0 -3 -4 -8 -10 -11 -5 -3 -10 -1 -10 4 0 6 5 11 10 11 6
0 10 -2 10 -4z m80 -6 c0 -5 -2 -10 -4 -10 -3 0 -8 5 -11 10 -3 6 -1 10 4 10
6 0 11 -4 11 -10z m580 0 c0 -5 -2 -10 -4 -10 -3 0 -8 5 -11 10 -3 6 -1 10 4
10 6 0 11 -4 11 -10z m-855 -9 c3 -5 1 -12 -5 -16 -5 -3 -10 1 -10 9 0 18 6
21 15 7z m85 -1 c0 -5 -2 -10 -4 -10 -3 0 -8 5 -11 10 -3 6 -1 10 4 10 6 0 11
-4 11 -10z m40 0 c0 -5 -4 -10 -10 -10 -5 0 -10 5 -10 10 0 6 5 10 10 10 6 0
10 -4 10 -10z m763 -10 c-3 -11 -8 -20 -12 -20 -4 0 -7 9 -7 20 0 11 6 20 12
20 7 0 10 -8 7 -20z m37 10 c0 -5 -4 -10 -10 -10 -5 0 -10 5 -10 10 0 6 5 10
10 10 6 0 10 -4 10 -10z m40 -17 c0 -14 -3 -23 -7 -19 -10 10 -11 46 -1 46 4
0 8 -12 8 -27z m80 17 c0 -5 -4 -10 -10 -10 -5 0 -10 5 -10 10 0 6 5 10 10 10
6 0 10 -4 10 -10z m-810 -10 c0 -5 -2 -10 -4 -10 -3 0 -8 5 -11 10 -3 6 -1 10
4 10 6 0 11 -4 11 -10z m155 -8 c-3 -3 -11 0 -18 7 -9 10 -8 11 6 5 10 -3 15
-9 12 -12z m270 8 c-3 -5 -12 -10 -18 -10 -7 0 -6 4 3 10 19 12 23 12 15 0z
m155 6 c0 -3 -4 -8 -10 -11 -5 -3 -10 -1 -10 4 0 6 5 11 10 11 6 0 10 -2 10
-4z m-742 -31 c-3 -3 -9 2 -12 12 -6 14 -5 15 5 6 7 -7 10 -15 7 -18z m87 15
c3 -5 1 -10 -4 -10 -6 0 -11 5 -11 10 0 6 2 10 4 10 3 0 8 -4 11 -10z m685 0
c0 -5 -2 -10 -4 -10 -3 0 -8 5 -11 10 -3 6 -1 10 4 10 6 0 11 -4 11 -10z
m-945 -10 c3 -5 1 -10 -4 -10 -6 0 -11 5 -11 10 0 6 2 10 4 10 3 0 8 -4 11
-10z m1245 0 c0 -5 -5 -10 -11 -10 -5 0 -7 5 -4 10 3 6 8 10 11 10 2 0 4 -4 4
-10z m-815 -28 c-3 -3 -11 0 -18 7 -9 10 -8 11 6 5 10 -3 15 -9 12 -12z m390
8 c-3 -5 -14 -10 -23 -9 -14 0 -13 2 3 9 27 11 27 11 20 0z m67 -24 c10 6 11
4 0 -7 -10 -11 -15 -10 -30 6 -15 17 -15 18 0 6 9 -7 23 -9 30 -5z m-761 -14
c-7 -2 -18 1 -23 6 -8 8 -4 9 13 5 13 -4 18 -8 10 -11z m-56 -11 c-3 -6 -11
-8 -17 -5 -6 4 -5 9 3 15 16 10 23 4 14 -10z m873 6 c13 5 14 3 5 -7 -13 -14
-33 -5 -32 13 0 9 2 9 5 0 3 -7 13 -9 22 -6z m179 7 c-3 -3 -12 -4 -19 -1 -8
3 -5 6 6 6 11 1 17 -2 13 -5z m49 -16 c-9 -5 -23 -23 -32 -39 -8 -17 -18 -29
-20 -26 -7 6 18 57 28 57 4 0 8 7 8 15 0 9 6 12 16 8 15 -5 15 -7 0 -15z
m-926 -2 c-7 -7 -13 -7 -20 0 -6 6 -3 10 10 10 13 0 16 -4 10 -10z m55 -4 c-3
-3 -11 0 -18 7 -9 10 -8 11 6 5 10 -3 15 -9 12 -12z m705 4 c-7 -7 -13 -7 -20
0 -6 6 -3 10 10 10 13 0 16 -4 10 -10z m60 8 c0 -8 -19 -13 -24 -6 -3 5 1 9 9
9 8 0 15 -2 15 -3z m-690 -61 c0 -50 -16 -73 -50 -73 -40 0 -60 9 -60 29 1 14
2 14 11 -2 11 -18 65 -21 76 -3 3 5 1 6 -5 2 -8 -5 -12 1 -12 17 0 14 -7 30
-15 37 -11 9 -12 16 -3 30 9 15 16 16 35 7 17 -8 23 -18 23 -44z m-260 -14 c0
-13 -7 -19 -21 -19 -11 0 -17 5 -14 10 4 6 10 8 15 5 4 -3 6 4 3 15 -3 11 -9
23 -14 26 -5 3 -9 11 -9 17 1 20 40 -34 40 -54z m797 50 c14 -14 -15 -48 -34
-41 -7 2 -13 -1 -13 -7 0 -6 4 -11 10 -11 5 0 6 -7 3 -17 -4 -10 -2 -14 5 -9
6 3 13 2 17 -4 9 -15 42 -12 49 5 9 23 -4 44 -22 38 -13 -4 -14 -3 -6 6 15 16
44 3 44 -21 0 -38 -19 -59 -48 -52 -37 8 -62 40 -62 79 0 40 32 59 57 34z
m-667 -61 c0 -10 -4 -18 -10 -18 -5 0 -7 -7 -4 -15 5 -11 -1 -15 -22 -14 -17
0 -23 3 -14 6 23 9 30 25 19 45 -6 10 -7 23 -4 28 4 6 3 10 -2 9 -17 -3 -24 1
-18 12 10 15 55 -29 55 -53z m791 49 c-1 -12 -15 -9 -19 4 -3 6 1 10 8 8 6 -3
11 -8 11 -12z m-964 -17 c3 -10 2 -11 -4 -4 -4 6 -15 14 -23 17 -11 5 -9 6 4
4 11 -1 21 -9 23 -17z m653 10 c0 -5 -4 -10 -10 -10 -5 0 -10 5 -10 10 0 6 5
10 10 10 6 0 10 -4 10 -10z m458 3 c-10 -2 -18 -9 -18 -15 0 -6 -3 -9 -6 -5
-10 10 6 27 24 26 15 -1 15 -2 0 -6z m-173 -49 c-9 -14 -12 -23 -6 -20 6 4 11
3 11 -3 0 -5 8 -12 18 -14 14 -4 13 -5 -3 -6 -12 0 -26 4 -33 11 -16 16 -15
65 1 71 23 9 30 -12 12 -39z m-970 26 c3 -5 1 -10 -4 -10 -6 0 -11 5 -11 10 0
6 2 10 4 10 3 0 8 -4 11 -10z m155 -27 c0 -14 -2 -14 -14 3 -13 17 -15 18 -21
2 -4 -9 -3 -23 1 -30 6 -10 4 -10 -9 1 -9 7 -15 16 -13 20 1 3 6 14 9 24 5 14
11 16 27 7 11 -6 20 -18 20 -27z m118 11 c4 -18 3 -18 -13 1 -9 11 -14 14 -10
8 4 -8 0 -13 -9 -13 -19 0 -21 16 -3 23 19 8 32 2 35 -19z m757 6 c-4 -6 -11
-8 -16 -5 -5 4 -9 1 -9 -6 0 -7 -3 -10 -6 -6 -9 9 5 27 22 27 8 0 12 -5 9 -10z
m-1090 -10 c3 -5 -1 -10 -10 -10 -9 0 -13 5 -10 10 3 6 8 10 10 10 2 0 7 -4
10 -10z m1169 -11 c-3 -5 -10 -7 -15 -3 -5 3 -7 10 -3 15 3 5 10 7 15 3 5 -3
7 -10 3 -15z m-64 -9 c0 -11 -4 -20 -9 -20 -5 0 -7 9 -4 20 3 11 7 20 9 20 2
0 4 -9 4 -20z m-1235 -36 c1 -27 -10 -32 -19 -9 -3 8 -1 15 4 15 5 0 7 8 3 18
-4 10 -2 14 3 9 5 -5 9 -20 9 -33z m35 -20 c0 -8 -4 -14 -9 -14 -11 0 -22 26
-14 34 9 9 23 -3 23 -20z m947 16 c9 0 13 -6 9 -15 -3 -8 -1 -15 4 -15 6 0 10
5 10 11 0 5 4 8 9 5 4 -3 31 -6 60 -7 42 -2 51 -5 51 -20 0 -10 -4 -21 -10
-24 -5 -3 -7 -19 -3 -35 6 -34 -16 -76 -50 -91 -20 -9 -20 -9 6 -6 23 4 27 1
27 -19 0 -12 -5 -26 -11 -29 -6 -5 -4 -12 8 -21 10 -7 16 -14 13 -14 -3 -1
-14 -3 -25 -6 -11 -2 -72 -6 -135 -8 -90 -3 -120 -1 -138 10 -13 8 -31 12 -41
9 -10 -3 -31 -1 -45 5 -24 9 -27 14 -21 41 5 23 3 34 -12 45 -17 14 -17 14 1
29 18 14 21 13 33 -17 7 -17 21 -37 31 -44 15 -12 15 -15 2 -24 -12 -8 -11
-10 6 -10 12 0 27 -7 34 -15 10 -13 15 -12 32 8 13 15 21 18 24 10 3 -7 13
-13 21 -13 13 0 13 -3 2 -17 -11 -15 -9 -14 9 1 19 17 25 18 47 6 14 -7 28
-10 32 -7 3 4 0 7 -8 7 -12 0 -11 2 1 11 12 8 10 9 -7 4 -27 -7 -27 -6 -8 31
11 22 12 31 2 42 -10 13 -8 14 10 8 17 -6 29 -1 47 19 22 23 24 24 19 5 -3
-11 -15 -27 -26 -35 -12 -8 -18 -17 -15 -21 11 -10 58 44 58 66 0 11 7 23 15
26 21 8 19 20 -4 20 -11 0 -17 -4 -15 -8 3 -4 -2 -5 -10 -2 -9 3 -13 11 -9 17
3 6 1 7 -5 3 -15 -9 -16 6 -1 21 7 7 2 9 -18 5 -15 -3 -22 -7 -15 -10 10 -3
10 -7 0 -20 -11 -13 -10 -15 5 -9 23 9 22 -2 -5 -32 l-23 -26 23 19 c29 25 38
15 13 -15 -16 -20 -21 -22 -35 -10 -12 10 -14 17 -6 25 21 21 9 29 -13 8 -13
-12 -27 -20 -30 -17 -4 3 -5 2 -2 -2 3 -3 0 -12 -6 -20 -16 -18 -4 -16 16 3 9
9 19 13 23 9 4 -3 0 -12 -9 -18 -17 -13 -34 -61 -17 -51 5 3 13 15 17 27 4 11
10 16 14 11 19 -32 -49 -82 -76 -55 -8 8 -7 11 3 11 9 0 8 5 -6 15 -17 13 -17
16 -4 28 21 16 40 62 40 94 0 25 1 25 18 10 26 -24 29 -22 37 23 5 28 3 46 -7
57 -11 15 -11 16 5 10 10 -4 25 -7 34 -7z m-812 -10 c3 -5 1 -10 -4 -10 -6 0
-11 5 -11 10 0 6 2 10 4 10 3 0 8 -4 11 -10z m1155 -21 c0 -6 -4 -7 -10 -4 -5
3 -10 11 -10 16 0 6 5 7 10 4 6 -3 10 -11 10 -16z m-955 1 c3 -5 11 -10 16
-10 6 0 7 5 4 10 -3 6 -1 10 4 10 13 0 14 -10 2 -29 -8 -13 -12 -13 -28 0 -16
13 -17 13 -4 -3 12 -16 9 -20 -30 -38 -63 -28 -132 -25 -234 10 -91 30 -123
47 -69 36 56 -12 177 -23 218 -19 48 4 96 22 96 34 0 12 17 11 25 -1z m817 -1
c21 -11 21 -12 -3 -25 -28 -16 -53 -18 -26 -3 14 8 16 14 6 25 -14 17 -5 18
23 3z m-679 -21 c9 -31 2 -33 -11 -3 -6 14 -8 25 -3 25 5 0 11 -10 14 -22z
m27 6 c0 -8 -5 -12 -10 -9 -6 4 -8 11 -5 16 9 14 15 11 15 -7z m900 -26 c0
-18 -2 -20 -9 -8 -6 8 -7 18 -5 22 9 14 14 9 14 -14z m-240 -64 c0 -16 -39
-44 -60 -44 -10 1 -5 8 13 21 26 20 27 23 12 45 -22 35 -18 41 10 14 14 -13
25 -29 25 -36z m-710 42 c0 -2 -7 -6 -15 -10 -8 -3 -15 -1 -15 4 0 6 7 10 15
10 8 0 15 -2 15 -4z m850 0 c0 -3 -4 -8 -10 -11 -5 -3 -10 -1 -10 4 0 6 5 11
10 11 6 0 10 -2 10 -4z m-941 -19 c-2 -1 -13 -9 -24 -17 -19 -14 -19 -14 -6 3
7 9 18 17 24 17 6 0 8 -1 6 -3z m82 -20 c-10 -9 -11 -8 -5 6 3 10 9 15 12 12
3 -3 0 -11 -7 -18z m889 13 c23 -12 16 -40 -10 -40 -10 0 -20 -7 -24 -15 -7
-19 -23 -19 -23 0 0 8 13 17 29 20 34 8 47 25 19 25 -12 0 -21 5 -21 10 0 13
6 13 30 0z m-1203 -26 c-3 -3 -12 -4 -19 -1 -8 3 -5 6 6 6 11 1 17 -2 13 -5z
m253 -4 c-12 -8 -12 -10 4 -16 14 -5 15 -9 4 -15 -20 -13 -23 -11 -24 16 -1
17 3 25 15 25 14 0 14 -2 1 -10z m1040 -5 c7 -9 8 -15 2 -15 -5 0 -12 7 -16
15 -3 8 -4 15 -2 15 2 0 9 -7 16 -15z m-611 -9 c10 -11 8 -16 -9 -21 -11 -3
-18 -11 -14 -16 3 -6 0 -18 -7 -27 -11 -13 -8 -12 9 2 26 23 30 6 4 -18 -18
-15 -20 -15 -36 3 -16 17 -16 20 6 54 26 41 31 43 47 23z m391 -6 c0 -5 -4
-10 -10 -10 -5 0 -10 5 -10 10 0 6 5 10 10 10 6 0 10 -4 10 -10z m158 -45
c-11 -11 -37 7 -31 22 5 13 8 13 21 -1 9 -9 13 -18 10 -21z m57 25 c-3 -5 -12
-10 -18 -10 -7 0 -6 4 3 10 19 12 23 12 15 0z m-1168 -15 c0 -8 -4 -12 -9 -9
-5 3 -6 10 -3 15 9 13 12 11 12 -6z m73 5 c0 -5 -4 -10 -10 -10 -5 0 -10 5
-10 10 0 6 5 10 10 10 6 0 10 -4 10 -10z m808 -13 c10 -8 7 -13 -15 -23 -26
-11 -26 -12 -8 -19 11 -4 29 -10 40 -15 18 -8 18 -9 -6 -9 -14 -1 -34 6 -45
14 -19 15 -19 15 0 30 17 12 17 17 5 32 -12 15 -12 16 1 8 8 -4 21 -13 28 -18z
m-1098 -7 c0 -5 -4 -10 -9 -10 -6 0 -13 5 -16 10 -3 6 1 10 9 10 9 0 16 -4 16
-10z m614 -15 c-4 -8 -8 -15 -10 -15 -2 0 -4 7 -4 15 0 8 4 15 10 15 5 0 7 -7
4 -15z m672 0 c19 -15 19 -15 0 -30 -11 -8 -22 -13 -25 -10 -2 3 4 12 15 20
18 14 18 14 -3 15 -13 0 -23 5 -23 10 0 14 13 12 36 -5z m107 -20 c-3 -9 -8
-14 -10 -11 -3 3 -2 9 2 15 9 16 15 13 8 -4z m-213 1 c0 -3 -4 -8 -10 -11 -5
-3 -10 -1 -10 4 0 6 5 11 10 11 6 0 10 -2 10 -4z m20 -16 c0 -5 -5 -10 -11
-10 -5 0 -7 5 -4 10 3 6 8 10 11 10 2 0 4 -4 4 -10z m148 -42 c-7 -19 -21 -12
-25 11 -3 20 -1 22 12 11 9 -7 14 -17 13 -22z m-1228 12 c0 -5 -5 -10 -11 -10
-5 0 -7 5 -4 10 3 6 8 10 11 10 2 0 4 -4 4 -10z m465 -9 c-3 -6 -11 -11 -16
-11 -5 0 -4 6 3 14 14 16 24 13 13 -3z m-70 -21 c7 -12 -42 -36 -53 -26 -4 4
2 14 12 22 23 17 33 18 41 4z m-340 -24 c-15 -23 -15 -25 2 -35 28 -16 6 -13
-27 4 -17 9 -30 20 -30 26 0 8 4 8 13 0 11 -8 18 -6 32 9 25 27 29 25 10 -4z
m1270 4 c3 -6 -1 -7 -9 -4 -18 7 -21 14 -7 14 6 0 13 -4 16 -10z m-1460 -10
c3 -5 1 -10 -4 -10 -6 0 -11 5 -11 10 0 6 2 10 4 10 3 0 8 -4 11 -10z m460 0
c3 -5 1 -10 -4 -10 -6 0 -11 5 -11 10 0 6 2 10 4 10 3 0 8 -4 11 -10z m-141
-31 c-3 -5 -15 -8 -27 -8 -16 1 -17 3 -5 6 11 3 15 10 11 21 -6 15 -5 15 10 3
9 -7 14 -17 11 -22z m549 -10 c-3 -10 -9 -19 -15 -19 -5 0 -5 7 0 18 5 9 7 24
5 32 -4 12 -3 12 5 1 5 -7 7 -22 5 -32z m-468 21 c3 -5 1 -10 -4 -10 -6 0 -11
5 -11 10 0 6 2 10 4 10 3 0 8 -4 11 -10z m580 -31 c5 -21 2 -30 -15 -42 -12
-8 -20 -23 -19 -34 2 -10 -1 -25 -6 -33 -5 -8 -10 -22 -10 -30 0 -8 -9 -19
-20 -25 -12 -5 -31 -20 -45 -32 -13 -13 -26 -20 -29 -17 -3 3 4 13 17 21 12 9
22 22 22 30 0 9 8 13 23 11 18 -2 21 1 19 19 -2 12 2 24 8 28 5 3 10 19 10 36
0 20 5 29 16 29 14 0 16 8 11 41 -6 44 7 42 18 -2z m73 13 c2 -6 -6 -10 -17
-9 -22 1 -26 8 -14 21 9 9 26 3 31 -12z m62 8 c0 -13 -12 -19 -26 -13 -8 3
-12 8 -9 12 5 10 35 10 35 1z m320 -10 c0 -5 -4 -10 -10 -10 -5 0 -10 5 -10
10 0 6 5 10 10 10 6 0 10 -4 10 -10z m-1200 -15 c-7 -8 -17 -12 -22 -9 -6 4
-5 10 3 15 22 14 33 10 19 -6z m140 3 c0 -4 -4 -8 -9 -8 -6 0 -12 4 -15 8 -3
5 1 9 9 9 8 0 15 -4 15 -9z m884 3 c4 -5 -3 -7 -14 -4 -23 6 -26 13 -6 13 8 0
17 -4 20 -9z m-957 -12 c-14 -8 -22 -8 -30 0 -8 8 -3 11 19 11 25 -1 27 -2 11
-11z m881 -1 c-6 -18 -25 -20 -31 -3 -5 10 0 15 14 15 12 0 19 -5 17 -12z
m322 -4 c0 -2 -7 -4 -15 -4 -8 0 -15 4 -15 10 0 5 7 7 15 4 8 -4 15 -8 15 -10z
m-702 -18 c-7 -8 -15 -12 -17 -11 -5 6 10 25 20 25 5 0 4 -6 -3 -14z m285 -4
c-10 -10 -20 -17 -22 -16 -6 5 20 34 30 34 5 0 1 -8 -8 -18z m357 -3 c0 -6 -4
-7 -10 -4 -5 3 -10 11 -10 16 0 6 5 7 10 4 6 -3 10 -11 10 -16z m-326 -4 c-4
-8 -14 -15 -23 -15 -14 1 -13 3 3 15 25 19 27 19 20 0z m-80 -11 c9 -24 8 -27
-10 -20 -12 5 -15 2 -10 -9 3 -9 2 -13 -4 -10 -11 7 -13 38 -3 48 11 11 20 8
27 -9z m236 -9 c0 -7 5 -16 10 -18 6 -3 5 -4 -1 -3 -7 1 -16 12 -20 25 -6 14
-5 20 1 16 6 -3 10 -12 10 -20z m-55 5 c-13 -21 15 -37 60 -35 56 2 67 -5 49
-29 -13 -18 -14 -19 -14 -2 0 13 -5 17 -20 13 -11 -3 -23 -1 -26 4 -8 14 -22
11 -26 -6 -2 -9 -12 1 -26 25 -19 34 -20 40 -7 40 9 0 13 -5 10 -10z m-238
-36 c-9 -9 -28 6 -21 18 4 6 10 6 17 -1 6 -6 8 -13 4 -17z m188 16 c3 -6 -1
-7 -9 -4 -9 3 -16 1 -16 -5 0 -11 10 -14 45 -12 11 0 14 -2 7 -5 -10 -5 -10
-9 0 -22 11 -15 11 -15 -2 -6 -8 5 -28 18 -44 28 -22 14 -26 20 -15 27 18 11
26 11 34 -1z m185 0 c13 -8 13 -10 -2 -10 -9 0 -20 5 -23 10 -8 13 5 13 25 0z
m105 -9 c3 -5 1 -12 -5 -16 -5 -3 -10 1 -10 9 0 18 6 21 15 7z m-375 -21 c0
-5 -4 -10 -10 -10 -5 0 -10 5 -10 10 0 6 5 10 10 10 6 0 10 -4 10 -10z m293 3
c3 -5 -1 -14 -9 -21 -12 -11 -14 -9 -14 8 0 20 14 27 23 13z m-598 -12 c3 -5
2 -12 -3 -15 -5 -3 -9 1 -9 9 0 17 3 19 12 6z m202 -20 c1 -14 -3 -18 -13 -14
-11 4 -12 9 -3 19 15 18 14 18 16 -5z m152 -7 c5 3 12 0 14 -6 3 -8 6 -6 6 5
1 23 21 22 21 -2 0 -21 -26 -36 -36 -20 -3 5 -13 7 -23 4 -12 -3 -17 1 -18 16
-2 16 1 18 12 9 8 -6 18 -9 24 -6z m264 -23 c5 -29 4 -32 -8 -20 -9 8 -12 23
-8 37 7 28 10 26 16 -17z m-670 -12 c-6 -6 -15 -3 -24 8 -13 16 -12 17 4 4 15
-12 17 -11 18 5 0 12 2 14 6 6 3 -8 1 -18 -4 -23z m-453 2 c15 -29 12 -39 -6
-16 -12 17 -16 18 -24 5 -5 -8 -12 -11 -16 -7 -8 7 14 37 27 37 5 0 13 -9 19
-19z m745 9 c3 -5 1 -10 -4 -10 -6 0 -11 5 -11 10 0 6 2 10 4 10 3 0 8 -4 11
-10z m52 -25 c0 -8 -4 -12 -8 -9 -4 2 -10 0 -14 -6 -8 -13 -25 -13 -25 0 0 16
24 38 36 33 6 -2 11 -10 11 -18z m-927 -16 c0 -5 -7 -5 -17 -2 -11 4 -14 3 -9
-5 4 -7 4 -17 0 -23 -9 -15 -24 9 -24 38 0 20 2 21 25 11 14 -6 25 -15 25 -19z
m1235 5 c9 -15 12 -24 7 -20 -6 3 -13 2 -17 -4 -4 -6 -11 -8 -16 -4 -6 4 -6
10 0 18 12 14 5 26 -15 26 -7 0 -10 -9 -8 -22 4 -21 4 -21 -5 -3 -19 42 27 50
54 9z m-1180 7 c3 -5 1 -12 -5 -16 -5 -3 -10 -1 -10 5 0 6 -4 8 -10 5 -5 -3
-10 -1 -10 4 0 13 27 14 35 2z m155 -5 c0 -9 -7 -12 -20 -9 -11 3 -17 9 -14
14 8 14 34 10 34 -5z m301 -9 c-10 -9 -11 -8 -5 6 3 10 9 15 12 12 3 -3 0 -11
-7 -18z m343 15 c3 -5 -1 -9 -9 -9 -8 0 -15 4 -15 9 0 4 4 8 9 8 6 0 12 -4 15
-8z m-386 -14 c-2 -6 -10 -14 -16 -16 -7 -2 -10 2 -6 12 7 18 28 22 22 4z
m-298 -19 c0 -6 -4 -7 -10 -4 -5 3 -10 11 -10 16 0 6 5 7 10 4 6 -3 10 -11 10
-16z m118 1 c4 -12 3 -13 -10 -2 -9 7 -24 9 -33 5 -13 -4 -16 -3 -11 6 10 16
48 10 54 -9z m441 -16 c-6 -8 -15 -12 -18 -8 -3 4 0 9 7 11 6 3 9 10 6 15 -4
7 -2 8 5 4 9 -6 9 -11 0 -22z m-55 -6 c-5 -8 -51 -4 -61 5 -4 4 10 6 29 5 20
-2 34 -6 32 -10z"/>
<path d="M951 1343 c-52 -27 -73 -74 -69 -156 3 -60 7 -71 36 -100 29 -29 38
-32 91 -32 64 0 96 16 135 69 25 33 29 119 7 160 -33 61 -138 92 -200 59z m74
-93 c0 -22 -29 -18 -33 3 -3 14 1 18 15 15 10 -2 18 -10 18 -18z"/>
<path d="M1720 1343 c-23 -9 -60 -45 -76 -75 -46 -88 37 -211 141 -211 86 0
138 62 132 156 -3 46 -9 63 -31 86 -38 40 -118 61 -166 44z m66 -84 c10 -17
-13 -36 -27 -22 -12 12 -4 33 11 33 5 0 12 -5 16 -11z"/>
<path d="M1110 789 c0 -5 6 -12 14 -15 8 -3 12 -12 9 -20 -3 -8 0 -14 6 -14
18 0 8 48 -11 53 -10 3 -18 1 -18 -4z"/>
<path d="M1666 790 c-15 -5 -16 -9 -7 -14 7 -5 18 -3 24 3 14 14 6 20 -17 11z"/>
<path d="M1660 629 c7 -11 14 -18 17 -15 8 8 -5 36 -17 36 -7 0 -7 -6 0 -21z"/>
<path d="M1690 635 c0 -17 34 -68 38 -57 2 7 -4 22 -14 33 -19 21 -6 27 15 7
11 -11 13 -10 9 2 -4 14 -48 28 -48 15z"/>
<path d="M1695 519 c-18 -11 -24 -19 -14 -19 9 0 24 9 34 20 22 24 19 24 -20
-1z"/>
<path d="M1623 450 c-11 -16 -10 -18 1 -14 15 6 30 34 18 34 -4 0 -13 -9 -19
-20z"/>
<path d="M1660 460 c0 -5 5 -10 11 -10 5 0 7 5 4 10 -3 6 -8 10 -11 10 -2 0
-4 -4 -4 -10z"/>
<path d="M1345 430 c3 -5 11 -10 16 -10 6 0 7 5 4 10 -3 6 -11 10 -16 10 -6 0
-7 -4 -4 -10z"/>
<path d="M1650 431 c0 -6 -10 -16 -22 -21 -16 -6 -18 -9 -7 -9 19 -1 45 26 35
36 -3 3 -6 1 -6 -6z"/>
<path d="M921 594 c0 -11 3 -14 6 -6 3 7 2 16 -1 19 -3 4 -6 -2 -5 -13z"/>
<path d="M1916 65 c-5 -15 18 -45 36 -45 6 0 8 3 5 7 -4 3 -2 13 5 20 9 11 9
17 -3 24 -21 13 -36 11 -43 -6z m27 -10 c-3 -9 -8 -14 -10 -11 -3 3 -2 9 2 15
9 16 15 13 8 -4z"/>
</g>
</svg>
